<svg xmlns="http://www.w3.org/2000/svg" viewBox="0 0 290 481.01"><defs><style>.cls-1,.cls-4{fill:none;}.cls-1,.cls-2,.cls-4{stroke:#000;stroke-miterlimit:10;}.cls-1,.cls-2{stroke-width:7px;}.cls-2{fill:#e85b5b;}.cls-3{font-size:30.83px;font-family:ArialMT, Arial;letter-spacing:0.02em;}.cls-4{stroke-width:6px;}</style></defs><title>robot</title><g id="Camada_2" data-name="Camada 2"><g id="Camada_1-2" data-name="Camada 1"><path d="M210.63,81.14V191H80V81.14H210.63m7-7H73V198H217.63V74.14Z"/><line class="cls-1" x1="144.56" y1="35.3" x2="144.56" y2="74.14"/><circle class="cls-2" cx="144.56" cy="18.9" r="15.4"/><rect x="88.82" y="157.83" width="6.7" height="20.09"/><rect x="106.34" y="157.83" width="6.7" height="20.09"/><rect x="123.86" y="157.83" width="6.7" height="20.09"/><rect x="141.38" y="157.83" width="6.7" height="20.09"/><rect x="158.9" y="157.83" width="6.7" height="20.09"/><rect x="176.42" y="157.83" width="6.7" height="20.09"/><rect x="193.94" y="157.83" width="6.7" height="20.09"/><text class="cls-3" transform="translate(166.32 112.97)">@</text><text class="cls-3" transform="translate(93.34 112.97)">@</text><rect x="136.13" y="195.01" width="19" height="48"/><rect class="cls-4" x="60" y="244.01" width="170" height="143.5"/><rect class="cls-4" x="81" y="388.51" width="22" height="61"/><line class="cls-4" x1="80" y1="404.51" x2="103" y2="404.51"/><line class="cls-4" x1="81" y1="426.51" x2="104" y2="426.51"/><rect class="cls-4" x="186" y="388.51" width="22" height="61"/><line class="cls-4" x1="185" y1="404.51" x2="208" y2="404.51"/><line class="cls-4" x1="186" y1="426.51" x2="209" y2="426.51"/><polygon class="cls-4" points="122 478.01 60 478.01 67 450.01 116 450.01 122 478.01"/><polygon class="cls-4" points="228 478.01 166 478.01 173 450.01 222 450.01 228 478.01"/><path d="M57,247v11.17c-21.67.12-39.19,17-39.19,37.7S59.33,333.47,81,333.59V345c-28.19-.12-75-22-75-49s22.81-48.88,51-49m6-6-6,0c-31.42.14-57,24.81-57,55,0,14.41,10.62,28.53,29.91,39.76,16,9.33,35.6,15.17,51.06,15.24l6,0V327.62l-6,0c-10.24-.06-25.11-4.25-37-10.44-12.68-6.6-20.24-14.55-20.24-21.27,0-17.38,14.91-31.6,33.23-31.7l6,0V241Z"/><path d="M111.5,314.51a24.69,24.69,0,0,1,3.5.25v6.73a16.72,16.72,0,1,0,0,32.71v9.06a24.5,24.5,0,1,1-3.5-48.75m0-6a30.5,30.5,0,1,0,4.35,60.69l5.15-.74V346.78l-7.25,1.54a10.72,10.72,0,1,1,0-21L121,328.9V309.56l-5.15-.74a30.82,30.82,0,0,0-4.35-.31Z"/><path d="M233,247c28.19.12,51,22,51,49s-46.81,48.88-75,49V333.59c21.67-.12,63.19-17,63.19-37.7S254.67,258.3,233,258.18V247m-6-6v23.16l6,0c18.32.1,33.23,14.33,33.23,31.7,0,6.72-7.57,14.67-20.24,21.27-11.88,6.19-26.74,10.38-37,10.44l-6,0V351l6,0c15.46-.07,35-5.91,51.06-15.24C279.38,324.54,290,310.42,290,296c0-30.19-25.56-54.86-57-55l-6,0Z"/><path d="M178.5,314.51a24.5,24.5,0,1,1-3.5,48.75v-9.06a16.72,16.72,0,1,0,0-32.71v-6.73a24.69,24.69,0,0,1,3.5-.25m0-6a30.82,30.82,0,0,0-4.35.31l-5.15.74V328.9l7.25-1.54a10.72,10.72,0,1,1,0,21L169,346.78v21.68l5.15.74a30.5,30.5,0,1,0,4.35-60.69Z"/></g></g></svg>